<?xml version="1.0" standalone="no"?>
<!DOCTYPE svg PUBLIC "-//W3C//DTD SVG 20010904//EN"
 "http://www.w3.org/TR/2001/REC-SVG-20010904/DTD/svg10.dtd">
<svg version="1.0" xmlns="http://www.w3.org/2000/svg"
 width="1080.000000pt" height="1080.000000pt" viewBox="0 0 1080.000000 1080.000000"
 preserveAspectRatio="xMidYMid meet">
<metadata>
Created by potrace 1.14, written by Peter Selinger 2001-2017
</metadata>
<g transform="translate(0.000000,1080.000000) scale(0.100000,-0.100000)"
fill="#000000" stroke="none">
<path d="M6014 9513 c-8 -9 -14 -10 -14 -3 0 6 -5 8 -12 3 -13 -8 -20 -10 -52
-16 -11 -2 -22 -9 -24 -15 -2 -7 -9 -12 -15 -12 -7 -1 -37 -28 -67 -61 -30
-33 -83 -90 -117 -126 -35 -36 -63 -72 -63 -80 0 -9 -6 -13 -15 -9 -8 3 -15 1
-15 -5 0 -6 -18 -28 -40 -50 -22 -22 -40 -44 -40 -50 0 -6 -4 -7 -10 -4 -5 3
-10 1 -10 -5 0 -6 -24 -35 -54 -65 -30 -30 -53 -55 -50 -55 2 0 -17 -20 -42
-45 -24 -25 -42 -45 -39 -45 4 0 -14 -19 -39 -42 -25 -22 -46 -47 -46 -55 0
-8 -4 -11 -10 -8 -5 3 -10 3 -10 -2 0 -4 -29 -39 -65 -77 -36 -38 -65 -73 -65
-77 0 -5 -8 -9 -17 -9 -14 0 -15 -2 -4 -9 11 -7 9 -10 -8 -16 -13 -4 -21 -9
-18 -11 2 -2 -16 -25 -40 -51 -29 -30 -43 -53 -40 -65 3 -10 1 -20 -4 -23 -4
-3 -6 -12 -3 -19 3 -8 1 -17 -5 -21 -8 -4 -8 -12 -1 -26 8 -14 7 -19 -2 -19
-8 0 -9 -3 -3 -8 20 -14 17 -70 -5 -92 -11 -11 -18 -26 -14 -32 4 -6 3 -9 -2
-5 -5 3 -18 -1 -29 -9 -10 -8 -16 -14 -12 -14 4 0 -6 -13 -22 -29 -16 -16 -27
-32 -24 -35 4 -3 -1 -6 -10 -6 -9 0 -17 -4 -17 -9 0 -5 -21 -31 -47 -58 -27
-27 -59 -63 -72 -81 -13 -17 -28 -29 -32 -26 -5 3 -9 -5 -9 -17 0 -12 -3 -20
-6 -16 -8 7 -24 -8 -48 -45 -10 -15 -22 -25 -27 -22 -5 3 -9 -1 -9 -8 0 -7
-14 -26 -30 -42 -17 -16 -30 -33 -30 -38 0 -5 -3 -7 -7 -5 -5 2 -18 -7 -30
-20 -12 -13 -19 -23 -16 -23 3 0 -5 -10 -19 -22 -14 -13 -35 -38 -47 -55 -12
-18 -29 -33 -37 -33 -8 0 -13 -4 -12 -8 2 -5 -17 -30 -42 -56 -25 -26 -44 -52
-42 -57 1 -5 -4 -8 -10 -7 -7 2 -12 -3 -10 -9 1 -7 -5 -13 -13 -13 -8 0 -15
-7 -15 -15 0 -8 -8 -15 -17 -15 -9 0 -14 -3 -10 -6 3 -3 -5 -16 -18 -29 -14
-12 -21 -26 -17 -30 4 -5 2 -5 -4 -2 -14 8 -37 -17 -26 -28 4 -5 1 -5 -6 -1
-9 5 -15 1 -19 -13 -3 -11 -8 -19 -12 -17 -3 2 -12 -2 -19 -10 -7 -8 -10 -14
-6 -14 4 0 -9 -14 -29 -31 -20 -17 -34 -35 -31 -40 3 -5 0 -9 -7 -9 -13 0 -49
-38 -49 -52 0 -4 -3 -7 -7 -6 -5 2 -10 -1 -13 -6 -3 -6 -20 -25 -37 -44 -18
-19 -33 -39 -33 -43 0 -5 -7 -9 -17 -9 -9 0 -14 -3 -10 -6 3 -3 -14 -26 -39
-50 -24 -24 -44 -46 -44 -49 0 -5 -104 -115 -185 -195 -14 -14 -23 -29 -20
-32 4 -3 -3 -9 -14 -13 -12 -3 -19 -10 -16 -14 2 -4 -7 -14 -20 -21 -14 -7
-25 -17 -25 -22 0 -5 -17 -27 -37 -48 -67 -68 -93 -98 -93 -109 0 -6 -7 -11
-15 -11 -8 0 -15 -4 -15 -9 0 -4 -20 -29 -45 -53 -25 -25 -45 -49 -45 -52 0
-12 -27 -35 -34 -29 -6 6 -10 -13 -7 -31 1 -5 -5 -6 -13 -3 -9 4 -17 -1 -21
-14 -4 -10 -13 -19 -21 -19 -8 0 -13 -3 -13 -7 3 -18 -1 -33 -8 -31 -8 3 -73
-57 -73 -67 0 -3 -20 -26 -45 -50 -24 -25 -43 -45 -41 -45 1 0 -21 -25 -51
-56 -29 -30 -50 -60 -47 -66 4 -7 2 -8 -4 -4 -7 4 -12 2 -12 -5 0 -7 -3 -10
-6 -6 -7 7 -34 -17 -34 -30 0 -4 -13 -19 -30 -33 -16 -14 -30 -30 -30 -37 0
-6 -9 -15 -20 -18 -11 -3 -20 -10 -20 -14 0 -4 -20 -29 -45 -55 -25 -27 -45
-53 -45 -58 0 -5 -4 -6 -10 -3 -5 3 -10 2 -10 -3 0 -5 -31 -42 -70 -82 -38
-40 -72 -81 -75 -91 -4 -10 -9 -18 -13 -16 -4 1 -17 -8 -30 -21 -12 -12 -20
-22 -18 -22 2 0 -20 -25 -50 -56 -29 -31 -51 -61 -47 -67 3 -5 2 -8 -3 -4 -5
3 -18 -1 -29 -9 -10 -8 -16 -14 -12 -14 4 0 -24 -32 -62 -71 -39 -40 -68 -77
-64 -83 3 -6 3 -8 -2 -4 -11 10 -46 -32 -38 -45 3 -6 1 -7 -5 -3 -7 4 -12 1
-12 -9 0 -9 -4 -13 -10 -10 -8 5 -14 -12 -9 -27 0 -2 -4 -15 -10 -30 -8 -21
-7 -28 1 -28 7 0 3 -7 -8 -15 -10 -8 -14 -15 -8 -15 7 0 10 -14 7 -34 -2 -19
1 -37 7 -41 6 -4 8 -11 5 -16 -4 -5 -2 -9 3 -9 12 0 10 -160 -2 -179 -6 -9 -5
-12 1 -8 11 7 10 -73 -1 -92 -4 -6 -2 -11 5 -11 8 0 7 -5 -2 -17 -12 -15 -12
-16 1 -8 13 7 13 6 2 -7 -9 -12 -10 -18 -2 -23 6 -4 7 -12 3 -18 -11 -16 -10
-108 1 -126 6 -10 5 -12 -2 -7 -9 5 -12 -8 -11 -46 1 -29 0 -57 -1 -63 -1 -5
-2 -36 -1 -68 0 -39 -4 -55 -11 -51 -7 5 -8 2 -2 -7 12 -19 12 -30 2 -51 -7
-14 -4 -18 9 -18 15 0 16 -2 3 -10 -8 -5 -11 -12 -7 -16 4 -4 2 -13 -4 -21 -9
-10 -8 -13 1 -13 10 0 10 -3 0 -15 -9 -11 -9 -15 -1 -15 8 0 9 -6 3 -17 -10
-22 -10 -33 2 -52 6 -9 5 -12 -1 -8 -6 4 -10 -9 -10 -31 0 -20 -1 -57 -2 -82
0 -25 -1 -52 -1 -60 0 -8 -3 -53 -5 -100 -3 -47 -7 -142 -9 -212 -2 -70 -7
-131 -11 -137 -3 -6 0 -11 7 -11 9 0 9 -3 -2 -10 -12 -8 -12 -10 -1 -10 11 0
11 -3 1 -15 -10 -12 -10 -15 1 -15 9 0 10 -3 4 -8 -13 -8 -13 -22 -1 -41 6 -8
5 -12 0 -8 -6 3 -9 -25 -9 -66 0 -40 -4 -75 -10 -79 -6 -5 -5 -8 3 -8 10 0 10
-5 2 -20 -8 -15 -8 -20 2 -20 9 0 9 -3 1 -11 -8 -8 -8 -20 -3 -34 5 -13 6 -26
2 -30 -7 -7 -12 -85 -15 -242 -1 -51 -4 -93 -7 -93 -3 0 -6 -64 -8 -142 -1
-94 -6 -146 -15 -156 -9 -12 -9 -14 0 -9 9 6 11 -12 9 -75 -4 -98 -6 -109 -26
-125 -8 -7 -10 -13 -5 -13 6 0 -2 -8 -17 -18 -15 -10 -40 -34 -56 -54 -16 -21
-33 -34 -37 -30 -5 4 -5 -1 -2 -11 4 -11 1 -17 -8 -17 -8 0 -15 -6 -15 -14 0
-7 -6 -19 -14 -25 -11 -10 -16 -70 -7 -113 2 -14 64 -68 77 -68 8 0 14 -4 14
-8 0 -14 71 -13 88 0 13 11 14 11 7 -2 -5 -9 0 -8 13 4 12 11 22 15 23 10 0
-5 4 1 10 14 5 13 13 20 19 17 5 -3 10 1 10 10 0 9 5 13 10 10 6 -3 10 1 10 9
0 9 7 16 15 16 8 0 15 5 15 11 0 13 99 109 114 110 6 1 34 3 61 4 28 2 50 4
50 5 0 1 16 4 35 5 19 2 52 4 73 6 21 2 41 7 43 11 3 4 13 4 23 -2 10 -5 21
-6 25 -3 8 9 32 13 79 15 20 1 37 4 37 7 0 4 17 7 38 7 43 2 147 12 147 14 0
2 20 4 105 14 25 3 45 6 45 6 0 2 90 11 137 13 21 1 38 5 38 9 0 4 9 5 20 3
11 -2 20 -1 20 3 0 4 15 7 33 8 17 0 66 4 107 8 41 5 91 10 110 11 19 2 35 4
35 5 0 3 56 10 88 11 15 0 27 6 27 12 0 7 4 6 10 -3 5 -8 10 -10 10 -4 0 6 15
9 35 8 19 -2 35 0 35 4 0 4 28 7 63 6 37 0 71 5 86 14 13 8 21 9 17 4 -7 -12
39 -10 51 1 11 12 24 7 17 -5 -6 -10 -4 -10 7 -2 8 6 21 12 29 13 65 7 85 9
85 11 0 1 18 3 40 4 22 1 46 6 54 10 10 7 12 5 6 -5 -7 -11 -6 -12 6 -3 8 6
26 11 42 10 15 -1 27 1 27 4 0 3 15 5 33 4 17 0 36 2 41 4 5 3 21 6 35 7 59 5
159 18 246 30 22 3 62 8 89 10 27 3 54 9 61 15 6 5 15 7 19 3 8 -9 46 -12 46
-4 0 3 15 7 33 8 55 3 119 11 123 16 3 3 21 1 40 -3 23 -5 34 -4 34 4 0 6 4 5
9 -3 6 -10 19 -12 47 -6 22 4 50 9 64 12 14 2 27 8 28 14 2 5 8 7 12 4 5 -3
30 15 56 40 27 25 45 45 41 45 -4 0 11 17 33 39 22 21 40 41 40 44 0 3 29 36
65 74 36 37 83 87 105 109 22 23 36 44 33 48 -4 3 1 6 10 6 10 0 17 7 17 16 0
8 5 12 10 9 6 -3 10 -2 10 3 0 5 29 40 64 78 36 37 62 72 59 77 -3 6 -2 7 3 4
6 -3 25 12 43 33 19 22 37 38 41 35 4 -3 7 3 6 13 0 9 5 16 12 14 6 -1 12 3
12 8 0 6 11 20 25 32 14 12 23 28 21 35 -3 7 1 10 9 7 8 -3 16 3 20 15 3 12
11 19 16 16 5 -4 9 -1 9 5 0 6 20 30 45 54 25 25 45 47 45 49 0 3 18 24 40 46
22 22 40 45 40 51 0 5 7 10 15 10 8 0 15 5 15 10 0 6 16 24 35 41 19 17 32 35
29 40 -3 5 2 9 11 9 9 0 13 5 10 10 -3 6 1 10 9 10 9 0 16 4 16 9 0 4 27 37
60 72 33 35 60 67 60 72 0 4 4 6 8 3 5 -3 15 6 22 19 7 14 17 25 22 25 4 0 8
7 8 16 0 10 6 14 15 10 10 -3 17 3 21 19 3 13 15 27 26 31 11 3 17 8 14 11 -3
3 15 25 40 49 24 24 41 44 37 44 -4 0 8 11 27 25 19 14 30 25 24 25 -5 0 3 11
18 24 15 12 25 26 21 30 -3 3 1 6 10 6 9 0 17 7 17 16 0 8 5 12 10 9 6 -3 10
-2 10 3 0 5 20 31 45 56 25 26 45 52 45 57 0 5 8 9 17 9 9 0 14 3 10 6 -3 4
11 22 31 41 20 19 37 40 37 47 1 6 6 10 12 9 7 -2 15 6 18 17 4 11 11 20 16
20 6 0 7 5 3 12 -4 6 -3 8 3 5 6 -4 16 0 23 8 7 8 9 15 4 15 -5 1 4 8 19 16
15 8 25 19 22 24 -3 5 4 11 15 15 11 4 18 11 15 16 -4 5 1 9 9 9 9 0 15 3 15
8 -3 19 2 33 10 28 5 -3 19 10 32 29 13 19 32 38 42 41 10 3 16 8 13 11 -2 3
13 22 34 43 21 21 36 40 34 43 -3 3 4 8 15 12 12 3 19 11 16 16 -4 5 1 12 9
15 9 3 16 13 16 21 0 8 5 11 10 8 6 -3 10 -1 10 5 0 6 5 8 12 4 6 -4 8 -3 5 3
-4 6 1 19 9 29 9 11 13 12 9 4 -3 -8 0 -7 7 4 7 10 31 36 53 57 21 22 36 39
32 39 -4 0 2 9 13 20 11 11 25 20 32 20 6 0 8 3 5 7 -4 3 4 16 18 28 13 13 21
26 18 29 -4 3 1 6 10 6 9 0 17 3 17 8 0 4 20 27 45 52 24 25 44 51 45 58 0 6
7 12 15 12 8 0 14 6 12 13 -1 6 3 11 10 10 6 -2 14 6 18 16 3 11 13 22 21 25
8 3 12 10 9 16 -3 5 1 10 10 10 9 0 14 4 11 9 -3 5 4 11 16 14 12 4 19 9 15
13 -4 4 8 18 25 31 18 12 28 23 23 23 -4 0 6 14 24 30 17 17 29 36 25 42 -4 6
-3 9 2 5 5 -3 18 1 29 9 10 8 15 14 11 14 -5 0 3 9 18 21 14 11 24 25 21 30
-4 5 1 9 9 9 9 0 16 5 16 10 0 6 37 47 81 91 55 55 84 77 89 69 11 -18 110
-15 110 3 0 4 4 6 10 2 12 -8 80 21 80 34 0 6 3 10 8 8 9 -3 52 40 52 54 0 5
5 7 10 4 6 -3 10 -1 10 5 0 6 5 8 12 4 6 -4 8 -3 5 3 -7 11 39 63 56 63 6 0 8
2 5 5 -3 3 14 27 38 52 23 26 40 51 37 57 -3 5 -1 6 4 3 6 -4 14 0 17 9 3 8
11 12 16 9 6 -4 10 -3 9 2 -3 14 13 43 21 38 4 -3 10 5 13 16 4 13 10 18 18
13 7 -4 10 -3 5 4 -6 11 30 52 46 52 5 0 7 3 5 8 -5 9 30 42 37 34 3 -3 6 2 6
11 0 9 5 17 10 17 6 0 10 8 10 17 0 9 3 14 6 10 8 -7 24 8 48 45 10 15 22 25
27 22 5 -3 9 0 9 5 0 14 43 57 52 54 7 -3 9 5 7 23 -1 8 43 44 54 44 6 0 8 3
4 6 -7 8 17 34 32 34 6 0 10 4 8 8 -1 4 13 22 31 40 18 18 30 32 27 32 -3 0 8
14 25 30 17 17 28 30 25 30 -3 0 3 8 13 18 9 11 21 17 26 14 5 -3 6 0 3 5 -4
6 0 16 8 23 8 7 12 16 9 21 -3 5 0 8 8 7 7 -2 14 7 16 20 2 12 7 20 12 17 10
-6 23 43 14 57 -4 7 -3 8 4 4 7 -4 12 -1 12 6 0 7 3 24 7 37 4 18 3 22 -6 16
-8 -5 -7 1 2 16 21 31 22 40 5 50 -11 7 -11 9 1 9 11 0 11 3 0 17 -12 15 -12
16 1 8 13 -8 13 -7 1 8 -7 9 -11 26 -8 37 3 11 1 20 -5 20 -5 0 -6 5 -3 10 3
6 1 10 -6 10 -6 0 -9 8 -6 20 3 11 1 20 -4 20 -4 0 -6 7 -3 15 4 8 1 15 -6 15
-6 0 -9 4 -6 8 3 5 -2 21 -10 36 -7 16 -14 37 -14 47 0 11 -5 19 -11 19 -5 0
-7 5 -4 10 3 6 -1 10 -10 10 -9 0 -14 4 -10 10 8 12 -30 81 -40 72 -5 -4 -5
-2 -2 5 9 15 -44 114 -57 106 -5 -3 -6 -1 -2 5 3 6 0 17 -9 25 -8 8 -16 21
-17 28 -3 12 -22 39 -45 64 -7 7 -9 15 -6 19 4 3 0 6 -7 6 -7 0 -11 3 -7 6 3
4 1 12 -6 20 -29 32 -37 44 -37 52 0 8 -19 33 -70 90 -12 12 -17 22 -13 22 4
0 -2 8 -13 19 -34 33 -53 59 -47 65 4 3 -1 6 -10 6 -10 0 -17 6 -17 13 0 8 -9
22 -20 32 -11 10 -20 22 -20 26 0 10 -50 61 -50 51 0 -4 -8 8 -16 25 -9 18
-19 31 -23 29 -6 -4 -32 19 -31 29 1 23 -2 26 -16 21 -8 -3 -12 -2 -9 4 3 6 2
10 -4 10 -5 0 -13 9 -16 20 -3 11 -13 20 -21 20 -8 0 -12 5 -9 10 3 6 -1 13
-9 16 -9 3 -16 12 -16 20 0 8 -6 14 -14 14 -8 0 -18 9 -21 20 -3 11 -11 20
-16 20 -5 0 -9 8 -9 17 0 9 -3 14 -6 10 -8 -8 -33 16 -27 26 2 4 -3 7 -11 7
-9 0 -16 3 -16 8 0 12 -108 121 -114 114 -3 -3 -6 3 -6 13 0 10 -3 16 -6 13
-6 -7 -54 39 -54 52 0 5 -9 12 -20 15 -11 4 -18 10 -15 14 2 4 -7 14 -20 21
-13 7 -22 17 -19 22 3 4 -2 8 -11 8 -9 0 -13 5 -10 10 3 6 1 10 -5 10 -7 0
-24 13 -40 30 -15 16 -30 26 -34 23 -3 -3 -6 1 -6 10 0 10 -4 17 -10 17 -12 0
-59 47 -53 53 2 3 -5 8 -16 12 -12 3 -21 10 -21 16 0 5 -18 21 -40 35 -22 15
-37 30 -34 35 3 5 -2 9 -10 9 -9 0 -16 5 -16 11 0 5 -4 7 -10 4 -5 -3 -10 2
-10 11 0 10 -3 15 -6 11 -3 -3 -13 2 -23 11 -40 38 -81 72 -89 72 -4 0 -13 9
-20 20 -7 11 -19 20 -26 20 -8 0 -18 9 -21 20 -4 11 -10 18 -15 15 -5 -3 -22
9 -39 26 -17 17 -31 27 -31 24 0 -4 -13 7 -29 24 -16 17 -34 31 -40 31 -6 0
-11 5 -11 10 0 6 -7 10 -16 10 -8 0 -12 5 -9 10 3 6 0 10 -8 10 -8 0 -26 11
-41 25 -14 13 -26 21 -26 18 0 -4 -13 6 -30 22 -16 16 -30 25 -30 22 0 -4 -10
2 -22 13 -53 48 -129 101 -147 103 -11 1 -18 3 -16 6 6 5 -60 51 -74 51 -6 0
-11 5 -11 10 0 6 -7 10 -16 10 -8 0 -12 5 -9 10 4 6 3 10 -2 9 -26 -5 -53 3
-53 15 0 8 -13 19 -30 25 -16 5 -30 15 -30 21 0 6 -4 9 -8 6 -5 -3 -18 4 -30
14 -12 11 -25 20 -30 20 -5 0 -33 13 -62 29 -30 16 -58 27 -62 25 -4 -3 -8 -1
-8 4 0 6 -20 18 -45 29 -25 10 -45 21 -45 26 0 4 -6 7 -12 7 -7 1 -31 9 -53
20 -22 11 -48 19 -57 20 -9 0 -20 5 -23 11 -4 6 -13 8 -21 5 -7 -3 -19 0 -26
7 -7 7 -24 14 -38 15 -14 2 -29 8 -35 12 -5 4 -21 8 -35 9 -34 1 -58 6 -66 14
-4 3 -16 2 -27 -4 -12 -7 -17 -7 -13 -1 10 17 -123 12 -140 -5z"/>
</g>
</svg>
